HIERARCHY
ROOT Hips
{
	OFFSET 0.000000 0.000000 0.000000
	CHANNELS 6 Xposition Yposition Zposition Zrotation Yrotation Xrotation 
	JOINT LHipJoint
	{
		OFFSET 0.000000 0.000000 0.000000
		CHANNELS 3 Zrotation Yrotation Xrotation
		JOINT LeftUpLeg
		{
			OFFSET 1.363060 -1.794630 0.839290
			CHANNELS 3 Zrotation Yrotation Xrotation
			JOINT LeftLeg
			{
				OFFSET 2.448110 -6.726130 0.000000
				CHANNELS 3 Zrotation Yrotation Xrotation
				JOINT LeftFoot
				{
					OFFSET 2.562200 -7.039590 0.000000
					CHANNELS 3 Zrotation Yrotation Xrotation
					JOINT LeftToeBase
					{
						OFFSET 0.157640 -0.433110 2.322550
						CHANNELS 3 Zrotation Yrotation Xrotation
						End Site
						{
							OFFSET 0.000000 0.000000 0.000000
						}
					}
				}
			}
		}
	}
	JOINT RHipJoint
	{
		OFFSET 0.000000 0.000000 0.000000
		CHANNELS 3 Zrotation Yrotation Xrotation
		JOINT RightUpLeg
		{
			OFFSET -1.305520 -1.794630 0.839290
			CHANNELS 3 Zrotation Yrotation Xrotation
			JOINT RightLeg
			{
				OFFSET -2.542530 -6.985550 0.000000
				CHANNELS 3 Zrotation Yrotation Xrotation
				JOINT RightFoot
				{
					OFFSET -2.568260 -7.056230 0.000000
					CHANNELS 3 Zrotation Yrotation Xrotation
					JOINT RightToeBase
					{
						OFFSET -0.164730 -0.452590 2.363150
						CHANNELS 3 Zrotation Yrotation Xrotation
						End Site
						{
							OFFSET 0.000000 0.000000 0.000000
						}
					}
				}
			}
		}
	}
	JOINT LowerBack
	{
		OFFSET 0.000000 0.000000 0.000000
		CHANNELS 3 Zrotation Yrotation Xrotation
		JOINT Spine
		{
			OFFSET 0.028270 2.035590 -0.193380
			CHANNELS 3 Zrotation Yrotation Xrotation
			JOINT Spine1
			{
				OFFSET 0.056720 2.048850 -0.042750
				CHANNELS 3 Zrotation Yrotation Xrotation
				JOINT Neck
				{
					OFFSET 0.000000 0.000000 0.000000
					CHANNELS 3 Zrotation Yrotation Xrotation
					JOINT Neck1
					{
						OFFSET -0.054170 1.746240 0.172020
						CHANNELS 3 Zrotation Yrotation Xrotation
						JOINT Head
						{
							OFFSET 0.104070 1.761360 -0.123970
							CHANNELS 3 Zrotation Yrotation Xrotation
							End Site
							{
								OFFSET 0.000000 0.000000 0.000000
							}
						}
					}
				}
				JOINT LeftShoulder
				{
					OFFSET 0.000000 0.000000 0.000000
					CHANNELS 3 Zrotation Yrotation Xrotation
					JOINT LeftArm
					{
						OFFSET 3.362410 1.200890 -0.311210
						CHANNELS 3 Zrotation Yrotation Xrotation
						JOINT LeftForeArm
						{
							OFFSET 4.983000 -0.000000 -0.000000
							CHANNELS 3 Zrotation Yrotation Xrotation
							JOINT LeftHand
							{
								OFFSET 3.483560 -0.000000 -0.000000
								CHANNELS 3 Zrotation Yrotation Xrotation
								JOINT LeftFingerBase
								{
									OFFSET 0.000000 0.000000 0.000000
									CHANNELS 3 Zrotation Yrotation Xrotation
									JOINT LeftHandIndex1
									{
										OFFSET 0.715260 -0.000000 -0.000000
										CHANNELS 3 Zrotation Yrotation Xrotation
										End Site
										{
											OFFSET 0.000000 0.000000 0.000000
										}
									}
								}
								JOINT LThumb
								{
									OFFSET 0.000000 0.000000 0.000000
									CHANNELS 3 Zrotation Yrotation Xrotation
									End Site
									{
										OFFSET 0.000000 0.000000 0.000000
									}
								}
							}
						}
					}
				}
				JOINT RightShoulder
				{
					OFFSET 0.000000 0.000000 0.000000
					CHANNELS 3 Zrotation Yrotation Xrotation
					JOINT RightArm
					{
						OFFSET -3.136600 1.374050 -0.404650
						CHANNELS 3 Zrotation Yrotation Xrotation
						JOINT RightForeArm
						{
							OFFSET -5.241900 -0.000000 -0.000000
							CHANNELS 3 Zrotation Yrotation Xrotation
							JOINT RightHand
							{
								OFFSET -3.444170 -0.000000 -0.000000
								CHANNELS 3 Zrotation Yrotation Xrotation
								JOINT RightFingerBase
								{
									OFFSET 0.000000 0.000000 0.000000
									CHANNELS 3 Zrotation Yrotation Xrotation
									JOINT RightHandIndex1
									{
										OFFSET -0.622530 -0.000000 -0.000000
										CHANNELS 3 Zrotation Yrotation Xrotation
										End Site
										{
											OFFSET 0.000000 0.000000 0.000000
										}
									}
								}
								JOINT RThumb
								{
									OFFSET 0.000000 0.000000 0.000000
									CHANNELS 3 Zrotation Yrotation Xrotation
									End Site
									{
										OFFSET 0.000000 0.000000 0.000000
									}
								}
							}
						}
					}
				}
			}
		}
	}
}
MOTION
Frames: 10
Frame Time: 0.033333
-0.297261 16.479752 5.445102 88.556850 -22.136869 -33.411662 -100.472536 -47.981256 61.367484 -14.818872 -7.101376 -50.891165 -33.133972 61.627179 -46.780933 -14.714486 10.553906 11.082408 0.588659 -0.041675 -51.613917 31.191201 -12.174814 -101.835194 67.505640 -73.077427 -107.898612 112.453804 -47.591305 -105.959483 -10.317233 -24.925849 -4.688825 -0.831017 -0.026930 -38.746543 -109.522103 60.711652 -34.222115 -164.587286 73.506608 -161.922700 -136.646451 66.934577 -151.221350 24.370074 16.092095 17.186115 6.054224 -1.558338 -3.513624 -0.019942 -0.030885 0.007010 101.669277 55.678549 -3.686504 -23.464658 78.024366 -56.473376 -72.838347 30.483137 -130.460613 -21.618415 -27.273124 33.794828 -1.863059 27.458724 -5.287182 -0.015524 0.005582 0.003313 0.039246 -0.005856 0.000139 47.859542 60.958055 78.174288 47.941132 17.706708 -176.632982 -1.037926 -53.788267 50.468768 11.372212 -12.914621 15.076548 24.588530 4.387224 -74.154458 0.014869 0.015462 0.047275 0.002305 -0.035493 -0.070006 
-0.450602 16.911091 6.238502 87.817744 -22.436371 -33.949311 -98.247225 -47.860125 58.516922 -16.907100 -9.035565 -48.004315 -28.530148 60.457489 -47.819999 -14.196855 17.021270 18.369010 1.618847 0.126448 -53.556690 29.841610 -12.168988 -102.162944 61.425588 -72.227739 -105.948828 108.417342 -52.557400 -117.553582 -15.605961 -20.852475 2.370951 -1.104932 -0.021953 -42.278114 -108.284814 60.579338 -34.166872 -162.515537 74.994031 -159.406169 -133.442484 65.907318 -148.046029 23.249261 16.390575 18.857375 8.999789 2.877326 -7.548975 0.065945 -0.031839 0.029887 95.941496 53.280268 -7.430185 -16.187889 80.945389 -58.011401 -77.080134 38.902310 -134.391613 -15.430797 -33.619614 21.130550 5.667643 26.013934 -1.670068 -0.077690 -0.019183 0.071136 0.009798 0.004999 0.009157 41.803077 58.331140 72.278274 46.572706 17.973488 -173.241729 6.762794 -56.700065 39.717177 6.867553 -12.762887 16.579874 30.833586 -0.702418 -73.239468 -0.007827 -0.006039 0.001259 -0.050217 0.012154 -0.002300 
-0.637947 17.274113 7.041732 88.514627 -22.245256 -34.087462 -96.382156 -49.506750 55.386261 -18.549021 -8.789430 -46.365382 -28.057338 59.341018 -47.814053 -8.066692 20.190538 23.790645 2.460648 0.329551 -54.158998 28.843253 -12.160894 -103.501814 54.133880 -72.021647 -101.468949 108.294523 -57.175264 -128.929483 -16.068268 -15.615862 7.113056 -1.402830 0.008288 -44.878280 -105.074193 58.943236 -31.758808 -167.323325 75.379142 -163.186450 -132.619434 65.943362 -147.337276 20.124316 13.754214 18.512636 8.184098 4.795344 -11.411249 0.037826 -0.068576 0.047198 91.387477 49.511380 -9.361833 6.203620 84.330171 -43.692496 -81.380535 45.365304 -136.081685 -1.827813 -44.466589 4.013681 9.106544 18.140352 -5.419907 -0.021210 -0.054232 0.005682 0.062095 0.049098 -0.057056 40.205848 55.315949 69.582760 45.953902 19.284271 -170.775817 13.341732 -56.970453 32.378937 2.369957 -12.707042 18.184096 31.212379 0.440495 -81.126464 -0.032245 0.083651 -0.068634 -0.049039 -0.064851 -0.072111 
-0.828422 17.499512 7.846184 88.701168 -21.475940 -34.089656 -94.164157 -49.788092 53.299939 -17.463496 -8.663202 -45.725506 -33.340595 59.764201 -49.110293 -7.961986 22.738165 25.501153 3.044978 0.394816 -52.582290 27.726843 -12.530475 -104.895259 50.514176 -72.303049 -100.901169 110.904760 -59.976448 -138.829961 -16.301818 -11.215836 9.783592 -1.487023 -0.009604 -45.913863 -102.996697 59.131072 -29.018749 -167.930182 75.053031 -163.236618 -131.626641 66.330784 -145.987752 17.940860 12.683822 17.721620 9.543473 6.071165 -11.514165 0.032593 -0.094414 0.071114 86.653755 49.196805 -10.830381 32.200258 83.913200 -22.756837 -85.884451 50.410040 -138.508032 1.924185 -46.819870 -0.987664 15.517990 12.574582 -3.312529 -0.046836 -0.092542 0.096155 0.046368 0.036028 -0.047328 37.067133 52.859882 65.106444 46.933329 20.702790 -169.196611 19.063478 -56.463210 27.091164 -2.266851 -16.680403 20.371943 27.128228 -6.029656 -78.423140 -0.050831 0.071453 -0.028537 -0.054676 -0.063848 -0.034597 
-1.009552 17.546097 8.627190 88.847169 -21.694384 -34.150218 -91.248365 -49.068882 51.385878 -14.771039 -8.244380 -46.289568 -40.597650 60.488440 -48.974708 -5.403955 22.008564 24.810393 3.156612 0.328221 -49.591044 28.338965 -12.500269 -105.548232 48.678928 -72.224397 -99.806397 109.664440 -60.286584 -141.044188 -20.494968 -9.373749 10.222154 -1.338232 0.069414 -44.204926 -102.798128 58.332336 -28.661567 -170.372896 74.910068 -166.575019 -135.243848 66.778318 -148.023500 16.227524 9.035301 15.151123 9.679735 4.120594 -7.708844 0.027377 -0.108069 0.088137 85.986466 50.519005 -10.000689 50.440471 84.234060 -6.316074 -87.532138 52.743224 -135.616266 1.342598 -49.135596 -7.156143 16.313877 6.945847 0.401174 -0.055973 -0.075521 0.044671 0.077426 0.063583 -0.072874 34.842982 51.239053 63.122520 47.741734 22.699729 -167.826564 24.414255 -58.210990 23.761874 -4.116888 -17.135794 17.169082 17.579296 -1.732194 -82.832591 -0.037480 0.071667 -0.066993 -0.072452 -0.044536 -0.085136 
-1.201800 17.387106 9.376461 89.029283 -22.121338 -34.324368 -89.181964 -48.828697 50.366225 -13.005818 -6.906912 -47.337015 -46.467769 61.251809 -47.570906 -5.789391 20.134901 18.557958 2.746439 0.214301 -46.158857 29.336927 -13.026606 -106.529708 47.236495 -74.071566 -97.538673 110.483309 -59.355168 -141.293032 -26.920824 -9.968911 8.944675 -1.147421 0.136764 -39.847708 -103.295545 58.214437 -28.917733 -172.341194 74.413840 -168.415120 -138.189763 67.754730 -150.508180 14.070264 7.567677 14.660361 11.315556 5.462349 -2.284095 0.107745 -0.033468 0.056953 86.109875 51.913126 -7.343968 37.548484 86.064240 -18.730142 -83.155852 52.287007 -128.171907 -9.646543 -43.352089 -3.775135 18.506066 2.236734 0.066450 -0.068663 -0.078013 0.083025 0.074044 0.034212 -0.037701 33.168583 50.549892 63.913600 49.592964 24.375995 -167.742160 26.163541 -61.501812 25.322539 -4.995989 -14.250666 13.434411 10.761495 12.347299 -86.805128 -0.079806 0.092887 -0.022143 -0.066596 -0.006534 -0.072438 
-1.414283 17.019184 10.099840 90.252798 -22.883094 -35.164977 -87.511495 -48.014205 48.767327 -10.284835 -5.914665 -48.441609 -55.123554 62.791675 -48.512083 -5.239005 18.565260 11.527131 2.127095 0.126794 -41.875169 28.516661 -11.709540 -106.213690 49.264820 -76.224472 -99.985236 109.287380 -58.033676 -135.578782 -29.229707 -10.614164 6.425651 -0.855384 0.145684 -35.303110 -104.971486 57.389571 -30.835664 -177.667914 74.805880 -174.115441 -144.556107 67.934046 -155.911282 11.546579 6.441278 13.504273 12.798603 7.135455 -0.750262 0.046296 -0.069932 0.036241 87.436907 53.210539 -5.863541 40.628692 88.026619 -16.206453 -72.664378 49.433068 -116.506355 -10.271414 -30.794124 -2.844607 18.586147 2.014966 -1.442249 -0.023797 -0.048784 0.020060 0.084597 0.090691 -0.065941 32.935063 51.153986 64.991093 51.913551 25.643182 -168.643781 19.717067 -60.849410 35.063121 2.609666 -10.548689 11.503637 7.815029 29.488361 -83.917305 -0.070987 0.060526 -0.089659 -0.098312 -0.090331 -0.083894 
-1.609642 16.518850 10.777756 90.696118 -22.643690 -35.852895 -87.328990 -48.087413 49.379649 -8.514151 -3.620430 -49.406373 -62.779775 62.940634 -48.054537 -2.640485 19.530567 6.622440 1.292086 0.027515 -37.910151 27.761114 -11.058247 -105.650279 50.735038 -77.675613 -102.174653 110.153862 -55.498720 -130.360790 -25.532687 -13.269313 1.879142 -0.379978 0.057511 -29.973348 -104.649139 57.897204 -29.430633 -177.222668 74.958432 -173.440952 -146.768105 69.325195 -158.261620 11.471645 8.123359 13.438401 14.452632 5.347885 1.488370 0.078362 -0.067002 0.076219 92.264052 55.026325 -0.615509 -89.006262 89.092256 -144.096867 -64.654827 42.454375 -109.346860 -15.300370 -19.320062 -3.201126 18.524256 2.600291 -4.716744 -0.097130 -0.038060 0.064305 0.052030 0.064001 -0.034098 34.975268 52.860755 67.121498 54.142817 27.603915 -170.049371 11.670946 -57.871340 48.190271 7.593672 -11.619930 13.393328 3.496125 39.023303 -89.877356 -0.057649 0.049073 -0.048806 -0.060412 -0.046920 -0.053891 
-1.737138 16.042309 11.378956 90.428671 -22.520740 -36.127734 -87.692347 -48.886567 49.892864 -6.442860 -0.319863 -48.780644 -68.010142 63.086923 -45.859230 -3.490296 20.150189 3.594943 0.848395 0.004650 -33.118652 26.686552 -9.472235 -105.301060 54.645730 -78.736982 -108.407698 111.470251 -52.691040 -124.825065 -21.026039 -13.644126 -4.103987 0.046426 0.005192 -25.037436 -104.061758 58.428755 -28.782221 179.846444 74.449387 -176.953041 -148.859641 70.225918 -160.692568 12.730419 9.358830 14.900270 16.280766 5.530767 -0.481465 0.077096 -0.030221 0.073807 93.582531 55.600543 1.412525 -140.456562 87.317801 164.933622 -58.996865 37.434600 -106.078145 -20.240009 -11.584335 -1.513642 10.952341 8.409261 -8.453884 -0.004687 -0.059528 0.055961 0.087876 0.076264 -0.072190 39.169316 54.271633 70.205631 54.993682 30.073794 -171.073709 5.673752 -53.711494 58.959253 9.528696 -11.074117 17.826318 3.961169 37.006987 -90.472232 -0.065736 0.044313 -0.079602 -0.059598 -0.082636 -0.076694 
-1.794397 15.718786 11.920910 90.275987 -22.426744 -36.449710 -88.800173 -49.953108 49.533925 -3.443947 3.243212 -46.701237 -68.869063 63.435050 -40.994065 -2.981090 18.518686 0.606424 0.384943 0.019989 -28.863990 25.528994 -8.646062 -105.489865 61.937061 -79.677681 -118.048073 113.924591 -50.923604 -120.532195 -16.172603 -12.969405 -11.071784 0.527114 -0.097798 -21.320458 -103.875857 58.943161 -28.427270 175.347368 74.083670 178.878097 -149.865559 71.027566 -160.940955 12.268861 9.673476 16.305099 16.803069 4.115867 -2.346195 0.048299 -0.051034 0.025515 95.021375 56.067523 4.259996 -165.327422 85.289066 140.962220 -53.600919 34.376953 -102.830775 -22.987586 -5.988867 -2.789805 4.136375 11.576289 -11.602485 -0.044766 -0.045827 0.054253 0.039269 0.052507 -0.083336 46.479441 56.071141 75.873574 54.634690 33.279039 -172.340978 1.258646 -49.456923 67.064041 8.056019 -14.073949 20.634919 3.568860 35.837702 -87.628217 -0.001954 0.082939 -0.044713 -0.074851 0.003532 -0.007889 
